<svg width="205" height="54" viewBox="0 0 205 54" fill="none" xmlns="http://www.w3.org/2000/svg">
<path fill-rule="evenodd" clip-rule="evenodd" d="M62.0698 4.07997C65.0664 1.75709 68.4117 0.394159 72.1288 0C70.6778 1.03126 69.3652 2.49288 68.1903 4.2604C65.5328 8.24057 63.8214 13.3811 62.9551 19.5692C62.0918 25.7353 62.3247 31.1082 63.7794 35.608L63.7812 35.6126L63.7824 35.617C64.3823 37.4416 65.167 39.0423 66.1626 40.3277C62.9386 38.9867 60.2566 36.9084 58.0961 34.0961C54.732 29.6581 53.4288 24.4266 54.2283 18.3279C55.0312 12.2034 57.6522 7.48316 62.0674 4.08183L62.0698 4.07997ZM87.8974 37.9631C84.9204 40.2563 81.5848 41.6056 77.8677 42C79.3004 40.9792 80.5972 39.5414 81.7592 37.8021C84.4314 33.8014 86.1495 28.6623 87.0134 22.4935C87.8773 16.3247 87.6322 10.9469 86.1507 6.44133C85.5435 4.59404 84.7491 2.97441 83.74 1.67721C86.9676 3.02501 89.6581 5.1155 91.8322 7.94634C95.247 12.3919 96.5737 17.6258 95.7744 23.722C94.9751 29.8183 92.3431 34.5381 87.8974 37.9631ZM80.0954 36.7326C82.55 33.0581 84.1961 28.2315 85.0332 22.2528C85.8702 16.2741 85.6087 11.2156 84.2485 7.07737C82.8883 2.93912 80.7569 0.693631 77.8549 0.340895C74.9644 -0.0104257 72.2977 1.65191 69.8554 5.32789C67.4161 8.98007 65.776 13.8074 64.9353 19.8099C64.0982 25.7886 64.3482 30.8456 65.6852 34.9811C67.0368 39.094 69.164 41.3269 72.066 41.6796C74.9797 42.0338 77.6561 40.3848 80.0954 36.7326Z" fill="url(#paint0_radial_2754_11677)"/>
<path fill-rule="evenodd" clip-rule="evenodd" d="M62.0698 4.07997C65.0664 1.75709 68.4117 0.394159 72.1288 0C70.6778 1.03126 69.3652 2.49288 68.1903 4.2604C65.5328 8.24057 63.8214 13.3811 62.9551 19.5692C62.0918 25.7353 62.3247 31.1082 63.7794 35.608L63.7812 35.6126L63.7824 35.617C64.3823 37.4416 65.167 39.0423 66.1626 40.3277C62.9386 38.9867 60.2566 36.9084 58.0961 34.0961C54.732 29.6581 53.4288 24.4266 54.2283 18.3279C55.0312 12.2034 57.6522 7.48316 62.0674 4.08183L62.0698 4.07997ZM87.8974 37.9631C84.9204 40.2563 81.5848 41.6056 77.8677 42C79.3004 40.9792 80.5972 39.5414 81.7592 37.8021C84.4314 33.8014 86.1495 28.6623 87.0134 22.4935C87.8773 16.3247 87.6322 10.9469 86.1507 6.44133C85.5435 4.59404 84.7491 2.97441 83.74 1.67721C86.9676 3.02501 89.6581 5.1155 91.8322 7.94634C95.247 12.3919 96.5737 17.6258 95.7744 23.722C94.9751 29.8183 92.3431 34.5381 87.8974 37.9631ZM80.0954 36.7326C82.55 33.0581 84.1961 28.2315 85.0332 22.2528C85.8702 16.2741 85.6087 11.2156 84.2485 7.07737C82.8883 2.93912 80.7569 0.693631 77.8549 0.340895C74.9644 -0.0104257 72.2977 1.65191 69.8554 5.32789C67.4161 8.98007 65.776 13.8074 64.9353 19.8099C64.0982 25.7886 64.3482 30.8456 65.6852 34.9811C67.0368 39.094 69.164 41.3269 72.066 41.6796C74.9797 42.0338 77.6561 40.3848 80.0954 36.7326Z" fill="url(#paint1_radial_2754_11677)"/>
<path fill-rule="evenodd" clip-rule="evenodd" d="M67.5672 45C68.9915 45.5305 70.5336 45.9002 72.193 46.1092C73.5071 46.2746 74.7755 46.3252 76 46.261L75.4859 49.5828C75.1466 51.7736 73.0253 53.2835 70.7476 52.9552L70.5559 52.9276C68.2787 52.5992 66.7067 50.5571 67.0461 48.3663L67.5672 45Z" fill="#F2AB23"/>
<path d="M178.223 42.5545V54H183.782V42.5545H187.707V38.7165H183.782V37.6885C183.782 36.729 184.129 35.9751 185.067 35.9751C185.797 35.9751 186.213 36.352 186.561 37.0374L190 35.9751C189.375 33.4393 187.36 32 184.442 32C180.725 32 178.223 34.0904 178.223 38.0654V38.7165H176V42.5545H178.223Z" fill="#30CBE9"/>
<path d="M156 32V54H162V32H156Z" fill="#30CBE9"/>
<path d="M167 38V54H172V38H167Z" fill="#30CBE9"/>
<path d="M167 29V35H173V29H167Z" fill="#30CBE9"/>
<path d="M200.482 48.1787C199.973 49.3702 199.021 49.8808 197.527 49.8808C195.862 49.8808 194.503 48.9957 194.367 47.1234H205V45.5914C205 41.4723 202.316 38 197.254 38C192.533 38 189 41.4383 189 46.2383C189 51.0723 192.465 54 197.323 54C201.331 54 204.117 52.0596 204.898 48.5872L200.482 48.1787ZM194.435 44.4681C194.639 43.0383 195.42 41.9489 197.186 41.9489C198.817 41.9489 199.701 43.1064 199.769 44.4681H194.435Z" fill="#30CBE9"/>
<path fill-rule="evenodd" clip-rule="evenodd" d="M96 32.2138L102.661 53.6218C102.731 53.8469 102.937 54 103.17 54H115.346C115.59 54 115.802 53.8329 115.863 53.594L121.026 33.2543C121.05 33.1601 121.134 33.0942 121.23 33.0942C121.326 33.0942 121.41 33.1601 121.434 33.2543L126.598 53.594C126.658 53.8329 126.871 54 127.115 54H139.29C139.524 54 139.73 53.8469 139.799 53.6218L150.975 17.7031C151.084 17.3547 150.826 17 150.466 17H139.665C139.432 17 139.226 17.1531 139.156 17.3782L132.79 37.8356C132.761 37.9268 132.678 37.9888 132.583 37.9888C132.485 37.9888 132.399 37.921 132.374 37.8241L127.211 17.4065C127.151 17.1673 126.938 17 126.694 17H116.991C116.747 17 116.534 17.1673 116.473 17.4065L111.311 37.8241C111.287 37.921 111.2 37.9888 111.101 37.9888C111.007 37.9888 110.924 37.9268 110.895 37.8356L104.529 17.3782C104.459 17.1531 104.253 17 104.02 17H98.0225C98.4064 19.4051 98.4259 21.9498 98.0812 24.634C97.7255 27.4057 97.0317 29.9323 96 32.2138Z" fill="#30CBE9"/>
<path fill-rule="evenodd" clip-rule="evenodd" d="M55 32.2597L48.4681 52.632C48.3979 52.851 48.1912 53 47.9575 53H35.7491C35.5048 53 35.2915 52.8375 35.2307 52.6049L30.0537 32.815C30.0298 32.7233 29.9456 32.6592 29.8493 32.6592C29.7529 32.6592 29.6688 32.7233 29.6448 32.815L24.4678 52.6049C24.407 52.8375 24.1937 53 23.9493 53H11.7409C11.5073 53 11.3006 52.851 11.2304 52.632L0.0251221 17.6841C-0.083568 17.3451 0.174027 17 0.535703 17H11.3651C11.5988 17 11.8054 17.1489 11.8757 17.3679L18.2589 37.2724C18.2873 37.3612 18.3711 37.4215 18.4658 37.4215C18.5648 37.4215 18.6513 37.3555 18.6759 37.2612L23.8521 17.3955C23.9128 17.1628 24.1262 17 24.3707 17H34.0999C34.3444 17 34.5578 17.1628 34.6185 17.3955L39.7947 37.2612C39.8192 37.3555 39.9058 37.4215 40.0048 37.4215C40.0995 37.4215 40.1833 37.3612 40.2117 37.2724L46.5949 17.3679C46.6651 17.1489 46.8718 17 47.1055 17H52.7529C52.3679 19.3401 52.3483 21.8159 52.6939 24.4275C53.0754 27.3108 53.8441 29.9216 55 32.2597Z" fill="#30CBE9"/>
<defs>
<radialGradient id="paint0_radial_2754_11677" cx="0" cy="0" r="1" gradientUnits="userSpaceOnUse" gradientTransform="translate(73.6603 8.46393) rotate(92.5486) scale(34.6679 34.3394)">
<stop stop-color="white"/>
<stop offset="1" stop-color="#9700FF"/>
</radialGradient>
<radialGradient id="paint1_radial_2754_11677" cx="0" cy="0" r="1" gradientUnits="userSpaceOnUse" gradientTransform="translate(69.567 4.47607) rotate(81.7617) scale(37.9152 37.8866)">
<stop stop-color="#FFACED"/>
<stop offset="1" stop-color="#7D00B8"/>
</radialGradient>
</defs>
</svg>
